<svg width="235" height="24" viewBox="0 0 235 24" fill="none" xmlns="http://www.w3.org/2000/svg">
<path d="M19.25 2.25H5.75C5.35218 2.25 4.97064 2.40804 4.68934 2.68934C4.40804 2.97064 4.25 3.35218 4.25 3.75V20.25C4.25 20.6478 4.40804 21.0294 4.68934 21.3107C4.97064 21.592 5.35218 21.75 5.75 21.75H19.25C19.6478 21.75 20.0294 21.592 20.3107 21.3107C20.592 21.0294 20.75 20.6478 20.75 20.25V3.75C20.75 3.35218 20.592 2.97064 20.3107 2.68934C20.0294 2.40804 19.6478 2.25 19.25 2.25ZM8.75 18.75C8.5275 18.75 8.30999 18.684 8.12498 18.5604C7.93998 18.4368 7.79578 18.2611 7.71064 18.0555C7.62549 17.85 7.60321 17.6238 7.64662 17.4055C7.69002 17.1873 7.79717 16.9868 7.9545 16.8295C8.11184 16.6722 8.31229 16.565 8.53052 16.5216C8.74875 16.4782 8.97495 16.5005 9.18052 16.5856C9.38609 16.6708 9.56179 16.815 9.6854 17C9.80902 17.185 9.875 17.4025 9.875 17.625C9.875 17.9234 9.75647 18.2095 9.5455 18.4205C9.33452 18.6315 9.04837 18.75 8.75 18.75ZM8.75 15C8.5275 15 8.30999 14.934 8.12498 14.8104C7.93998 14.6868 7.79578 14.5111 7.71064 14.3055C7.62549 14.1 7.60321 13.8738 7.64662 13.6555C7.69002 13.4373 7.79717 13.2368 7.9545 13.0795C8.11184 12.9222 8.31229 12.815 8.53052 12.7716C8.74875 12.7282 8.97495 12.7505 9.18052 12.8356C9.38609 12.9208 9.56179 13.065 9.6854 13.25C9.80902 13.435 9.875 13.6525 9.875 13.875C9.875 14.1734 9.75647 14.4595 9.5455 14.6705C9.33452 14.8815 9.04837 15 8.75 15ZM12.5 18.75C12.2775 18.75 12.06 18.684 11.875 18.5604C11.69 18.4368 11.5458 18.2611 11.4606 18.0555C11.3755 17.85 11.3532 17.6238 11.3966 17.4055C11.44 17.1873 11.5472 16.9868 11.7045 16.8295C11.8618 16.6722 12.0623 16.565 12.2805 16.5216C12.4988 16.4782 12.725 16.5005 12.9305 16.5856C13.1361 16.6708 13.3118 16.815 13.4354 17C13.559 17.185 13.625 17.4025 13.625 17.625C13.625 17.9234 13.5065 18.2095 13.2955 18.4205C13.0845 18.6315 12.7984 18.75 12.5 18.75ZM12.5 15C12.2775 15 12.06 14.934 11.875 14.8104C11.69 14.6868 11.5458 14.5111 11.4606 14.3055C11.3755 14.1 11.3532 13.8738 11.3966 13.6555C11.44 13.4373 11.5472 13.2368 11.7045 13.0795C11.8618 12.9222 12.0623 12.815 12.2805 12.7716C12.4988 12.7282 12.725 12.7505 12.9305 12.8356C13.1361 12.9208 13.3118 13.065 13.4354 13.25C13.559 13.435 13.625 13.6525 13.625 13.875C13.625 14.1734 13.5065 14.4595 13.2955 14.6705C13.0845 14.8815 12.7984 15 12.5 15ZM16.25 18.75C16.0275 18.75 15.81 18.684 15.625 18.5604C15.44 18.4368 15.2958 18.2611 15.2106 18.0555C15.1255 17.85 15.1032 17.6238 15.1466 17.4055C15.19 17.1873 15.2972 16.9868 15.4545 16.8295C15.6118 16.6722 15.8123 16.565 16.0305 16.5216C16.2488 16.4782 16.475 16.5005 16.6805 16.5856C16.8861 16.6708 17.0618 16.815 17.1854 17C17.309 17.185 17.375 17.4025 17.375 17.625C17.375 17.9234 17.2565 18.2095 17.0455 18.4205C16.8345 18.6315 16.5484 18.75 16.25 18.75ZM16.25 15C16.0275 15 15.81 14.934 15.625 14.8104C15.44 14.6868 15.2958 14.5111 15.2106 14.3055C15.1255 14.1 15.1032 13.8738 15.1466 13.6555C15.19 13.4373 15.2972 13.2368 15.4545 13.0795C15.6118 12.9222 15.8123 12.815 16.0305 12.7716C16.2488 12.7282 16.475 12.7505 16.6805 12.8356C16.8861 12.9208 17.0618 13.065 17.1854 13.25C17.309 13.435 17.375 13.6525 17.375 13.875C17.375 14.1734 17.2565 14.4595 17.0455 14.6705C16.8345 14.8815 16.5484 15 16.25 15ZM17.75 9.75C17.75 9.94891 17.671 10.1397 17.5303 10.2803C17.3897 10.421 17.1989 10.5 17 10.5H8C7.80109 10.5 7.61032 10.421 7.46967 10.2803C7.32902 10.1397 7.25 9.94891 7.25 9.75V6C7.25 5.80109 7.32902 5.61032 7.46967 5.46967C7.61032 5.32902 7.80109 5.25 8 5.25H17C17.1989 5.25 17.3897 5.32902 17.5303 5.46967C17.671 5.61032 17.75 5.80109 17.75 6V9.75Z" fill="#133041"/>
<path d="M44.5003 19.716C43.5403 19.716 42.6523 19.542 41.8363 19.194C41.0323 18.846 40.3243 18.36 39.7123 17.736C39.1123 17.112 38.6443 16.38 38.3083 15.54C37.9723 14.7 37.8043 13.782 37.8043 12.786C37.8043 11.79 37.9663 10.872 38.2903 10.032C38.6263 9.18 39.0943 8.448 39.6943 7.836C40.3063 7.212 41.0203 6.732 41.8363 6.396C42.6523 6.048 43.5403 5.874 44.5003 5.874C45.4603 5.874 46.3183 6.036 47.0743 6.36C47.8423 6.684 48.4903 7.116 49.0183 7.656C49.5463 8.184 49.9243 8.766 50.1523 9.402L47.9563 10.428C47.7043 9.756 47.2783 9.204 46.6783 8.772C46.0783 8.328 45.3523 8.106 44.5003 8.106C43.6603 8.106 42.9163 8.304 42.2683 8.7C41.6323 9.096 41.1343 9.642 40.7743 10.338C40.4263 11.034 40.2523 11.85 40.2523 12.786C40.2523 13.722 40.4263 14.544 40.7743 15.252C41.1343 15.948 41.6323 16.494 42.2683 16.89C42.9163 17.286 43.6603 17.484 44.5003 17.484C45.3523 17.484 46.0783 17.268 46.6783 16.836C47.2783 16.392 47.7043 15.834 47.9563 15.162L50.1523 16.188C49.9243 16.824 49.5463 17.412 49.0183 17.952C48.4903 18.48 47.8423 18.906 47.0743 19.23C46.3183 19.554 45.4603 19.716 44.5003 19.716ZM54.736 19.716C54.052 19.716 53.458 19.602 52.954 19.374C52.45 19.146 52.06 18.822 51.784 18.402C51.508 17.97 51.37 17.472 51.37 16.908C51.37 16.368 51.49 15.888 51.73 15.468C51.97 15.036 52.342 14.676 52.846 14.388C53.35 14.1 53.986 13.896 54.754 13.776L57.958 13.254V15.054L55.204 15.522C54.736 15.606 54.388 15.756 54.16 15.972C53.932 16.188 53.818 16.47 53.818 16.818C53.818 17.154 53.944 17.424 54.196 17.628C54.46 17.82 54.784 17.916 55.168 17.916C55.66 17.916 56.092 17.814 56.464 17.61C56.848 17.394 57.142 17.1 57.346 16.728C57.562 16.356 57.67 15.948 57.67 15.504V12.984C57.67 12.564 57.502 12.216 57.166 11.94C56.842 11.652 56.41 11.508 55.87 11.508C55.366 11.508 54.916 11.646 54.52 11.922C54.136 12.186 53.854 12.54 53.674 12.984L51.748 12.048C51.94 11.532 52.24 11.088 52.648 10.716C53.068 10.332 53.56 10.032 54.124 9.816C54.688 9.6 55.3 9.492 55.96 9.492C56.764 9.492 57.472 9.642 58.084 9.942C58.696 10.23 59.17 10.638 59.506 11.166C59.854 11.682 60.028 12.288 60.028 12.984V19.5H57.796V17.826L58.3 17.79C58.048 18.21 57.748 18.564 57.4 18.852C57.052 19.128 56.656 19.344 56.212 19.5C55.768 19.644 55.276 19.716 54.736 19.716ZM62.2074 19.5V5.874H64.5654V19.5H62.2074ZM71.4585 19.716C70.4865 19.716 69.6105 19.494 68.8305 19.05C68.0625 18.594 67.4565 17.982 67.0125 17.214C66.5685 16.434 66.3465 15.558 66.3465 14.586C66.3465 13.614 66.5685 12.744 67.0125 11.976C67.4565 11.208 68.0625 10.602 68.8305 10.158C69.6105 9.714 70.4865 9.492 71.4585 9.492C72.1545 9.492 72.8025 9.618 73.4025 9.87C74.0025 10.11 74.5185 10.446 74.9505 10.878C75.3945 11.298 75.7125 11.802 75.9045 12.39L73.8345 13.29C73.6545 12.798 73.3485 12.402 72.9165 12.102C72.4965 11.802 72.0105 11.652 71.4585 11.652C70.9425 11.652 70.4805 11.778 70.0725 12.03C69.6765 12.282 69.3645 12.63 69.1365 13.074C68.9085 13.518 68.7945 14.028 68.7945 14.604C68.7945 15.18 68.9085 15.69 69.1365 16.134C69.3645 16.578 69.6765 16.926 70.0725 17.178C70.4805 17.43 70.9425 17.556 71.4585 17.556C72.0225 17.556 72.5145 17.406 72.9345 17.106C73.3545 16.806 73.6545 16.404 73.8345 15.9L75.9045 16.836C75.7125 17.388 75.4005 17.886 74.9685 18.33C74.5365 18.762 74.0205 19.104 73.4205 19.356C72.8205 19.596 72.1665 19.716 71.4585 19.716ZM81.1857 19.716C80.4297 19.716 79.7697 19.548 79.2057 19.212C78.6537 18.876 78.2277 18.408 77.9277 17.808C77.6397 17.208 77.4957 16.506 77.4957 15.702V9.708H79.8537V15.504C79.8537 15.912 79.9317 16.272 80.0877 16.584C80.2557 16.884 80.4897 17.124 80.7897 17.304C81.1017 17.472 81.4497 17.556 81.8337 17.556C82.2177 17.556 82.5597 17.472 82.8597 17.304C83.1597 17.124 83.3937 16.878 83.5617 16.566C83.7297 16.254 83.8137 15.882 83.8137 15.45V9.708H86.1717V19.5H83.9397V17.574L84.1377 17.916C83.9097 18.516 83.5317 18.966 83.0037 19.266C82.4877 19.566 81.8817 19.716 81.1857 19.716ZM88.3636 19.5V5.874H90.7216V19.5H88.3636ZM95.8688 19.716C95.1848 19.716 94.5908 19.602 94.0868 19.374C93.5828 19.146 93.1928 18.822 92.9168 18.402C92.6408 17.97 92.5028 17.472 92.5028 16.908C92.5028 16.368 92.6228 15.888 92.8628 15.468C93.1028 15.036 93.4748 14.676 93.9788 14.388C94.4828 14.1 95.1188 13.896 95.8868 13.776L99.0908 13.254V15.054L96.3368 15.522C95.8688 15.606 95.5208 15.756 95.2928 15.972C95.0648 16.188 94.9508 16.47 94.9508 16.818C94.9508 17.154 95.0768 17.424 95.3288 17.628C95.5928 17.82 95.9168 17.916 96.3008 17.916C96.7928 17.916 97.2248 17.814 97.5968 17.61C97.9808 17.394 98.2748 17.1 98.4788 16.728C98.6948 16.356 98.8028 15.948 98.8028 15.504V12.984C98.8028 12.564 98.6348 12.216 98.2988 11.94C97.9748 11.652 97.5428 11.508 97.0028 11.508C96.4988 11.508 96.0488 11.646 95.6528 11.922C95.2688 12.186 94.9868 12.54 94.8068 12.984L92.8808 12.048C93.0728 11.532 93.3728 11.088 93.7808 10.716C94.2008 10.332 94.6928 10.032 95.2568 9.816C95.8208 9.6 96.4328 9.492 97.0928 9.492C97.8968 9.492 98.6048 9.642 99.2168 9.942C99.8288 10.23 100.303 10.638 100.639 11.166C100.987 11.682 101.161 12.288 101.161 12.984V19.5H98.9288V17.826L99.4328 17.79C99.1808 18.21 98.8808 18.564 98.5328 18.852C98.1848 19.128 97.7888 19.344 97.3448 19.5C96.9008 19.644 96.4088 19.716 95.8688 19.716ZM107.628 19.608C106.524 19.608 105.666 19.308 105.054 18.708C104.454 18.096 104.154 17.238 104.154 16.134V11.814H102.462V9.708H102.642C103.122 9.708 103.494 9.582 103.758 9.33C104.022 9.078 104.154 8.712 104.154 8.232V7.476H106.512V9.708H108.762V11.814H106.512V16.008C106.512 16.332 106.566 16.608 106.674 16.836C106.794 17.064 106.974 17.238 107.214 17.358C107.466 17.478 107.784 17.538 108.168 17.538C108.252 17.538 108.348 17.532 108.456 17.52C108.576 17.508 108.69 17.496 108.798 17.484V19.5C108.63 19.524 108.438 19.548 108.222 19.572C108.006 19.596 107.808 19.608 107.628 19.608ZM115.156 19.716C114.148 19.716 113.266 19.488 112.51 19.032C111.754 18.576 111.166 17.958 110.746 17.178C110.326 16.398 110.116 15.534 110.116 14.586C110.116 13.602 110.326 12.732 110.746 11.976C111.178 11.208 111.76 10.602 112.492 10.158C113.236 9.714 114.064 9.492 114.976 9.492C115.744 9.492 116.416 9.618 116.992 9.87C117.58 10.122 118.078 10.47 118.486 10.914C118.894 11.358 119.206 11.868 119.422 12.444C119.638 13.008 119.746 13.62 119.746 14.28C119.746 14.448 119.734 14.622 119.71 14.802C119.698 14.982 119.668 15.138 119.62 15.27H112.06V13.47H118.288L117.172 14.316C117.28 13.764 117.25 13.272 117.082 12.84C116.926 12.408 116.662 12.066 116.29 11.814C115.93 11.562 115.492 11.436 114.976 11.436C114.484 11.436 114.046 11.562 113.662 11.814C113.278 12.054 112.984 12.414 112.78 12.894C112.588 13.362 112.516 13.932 112.564 14.604C112.516 15.204 112.594 15.738 112.798 16.206C113.014 16.662 113.326 17.016 113.734 17.268C114.154 17.52 114.634 17.646 115.174 17.646C115.714 17.646 116.17 17.532 116.542 17.304C116.926 17.076 117.226 16.77 117.442 16.386L119.35 17.322C119.158 17.79 118.858 18.204 118.45 18.564C118.042 18.924 117.556 19.206 116.992 19.41C116.44 19.614 115.828 19.716 115.156 19.716ZM124.931 19.5V6.09H129.917C130.829 6.09 131.633 6.258 132.329 6.594C133.037 6.918 133.589 7.398 133.985 8.034C134.381 8.658 134.579 9.42 134.579 10.32C134.579 11.244 134.357 12.03 133.913 12.678C133.481 13.326 132.893 13.806 132.149 14.118L135.227 19.5H132.455L129.161 13.614L130.745 14.55H127.379V19.5H124.931ZM127.379 12.39H129.953C130.397 12.39 130.781 12.306 131.105 12.138C131.429 11.958 131.681 11.712 131.861 11.4C132.041 11.088 132.131 10.728 132.131 10.32C132.131 9.9 132.041 9.54 131.861 9.24C131.681 8.928 131.429 8.688 131.105 8.52C130.781 8.34 130.397 8.25 129.953 8.25H127.379V12.39ZM140.732 19.716C139.724 19.716 138.842 19.488 138.086 19.032C137.33 18.576 136.742 17.958 136.322 17.178C135.902 16.398 135.692 15.534 135.692 14.586C135.692 13.602 135.902 12.732 136.322 11.976C136.754 11.208 137.336 10.602 138.068 10.158C138.812 9.714 139.64 9.492 140.552 9.492C141.32 9.492 141.992 9.618 142.568 9.87C143.156 10.122 143.654 10.47 144.062 10.914C144.47 11.358 144.782 11.868 144.998 12.444C145.214 13.008 145.322 13.62 145.322 14.28C145.322 14.448 145.31 14.622 145.286 14.802C145.274 14.982 145.244 15.138 145.196 15.27H137.636V13.47H143.864L142.748 14.316C142.856 13.764 142.826 13.272 142.658 12.84C142.502 12.408 142.238 12.066 141.866 11.814C141.506 11.562 141.068 11.436 140.552 11.436C140.06 11.436 139.622 11.562 139.238 11.814C138.854 12.054 138.56 12.414 138.356 12.894C138.164 13.362 138.092 13.932 138.14 14.604C138.092 15.204 138.17 15.738 138.374 16.206C138.59 16.662 138.902 17.016 139.31 17.268C139.73 17.52 140.21 17.646 140.75 17.646C141.29 17.646 141.746 17.532 142.118 17.304C142.502 17.076 142.802 16.77 143.018 16.386L144.926 17.322C144.734 17.79 144.434 18.204 144.026 18.564C143.618 18.924 143.132 19.206 142.568 19.41C142.016 19.614 141.404 19.716 140.732 19.716ZM147.11 23.1V9.708H149.324V11.652L149.108 11.166C149.444 10.638 149.9 10.23 150.476 9.942C151.052 9.642 151.718 9.492 152.474 9.492C153.398 9.492 154.232 9.72 154.976 10.176C155.72 10.632 156.308 11.244 156.74 12.012C157.184 12.78 157.406 13.644 157.406 14.604C157.406 15.552 157.19 16.416 156.758 17.196C156.326 17.976 155.738 18.594 154.994 19.05C154.25 19.494 153.404 19.716 152.456 19.716C151.748 19.716 151.094 19.578 150.494 19.302C149.906 19.014 149.438 18.606 149.09 18.078L149.468 17.61V23.1H147.11ZM152.186 17.556C152.726 17.556 153.206 17.43 153.626 17.178C154.046 16.926 154.37 16.578 154.598 16.134C154.838 15.69 154.958 15.18 154.958 14.604C154.958 14.028 154.838 13.524 154.598 13.092C154.37 12.648 154.046 12.3 153.626 12.048C153.206 11.784 152.726 11.652 152.186 11.652C151.67 11.652 151.202 11.778 150.782 12.03C150.374 12.282 150.05 12.636 149.81 13.092C149.582 13.536 149.468 14.04 149.468 14.604C149.468 15.18 149.582 15.69 149.81 16.134C150.05 16.578 150.374 16.926 150.782 17.178C151.202 17.43 151.67 17.556 152.186 17.556ZM162.173 19.716C161.489 19.716 160.895 19.602 160.391 19.374C159.887 19.146 159.497 18.822 159.221 18.402C158.945 17.97 158.807 17.472 158.807 16.908C158.807 16.368 158.927 15.888 159.167 15.468C159.407 15.036 159.779 14.676 160.283 14.388C160.787 14.1 161.423 13.896 162.191 13.776L165.395 13.254V15.054L162.641 15.522C162.173 15.606 161.825 15.756 161.597 15.972C161.369 16.188 161.255 16.47 161.255 16.818C161.255 17.154 161.381 17.424 161.633 17.628C161.897 17.82 162.221 17.916 162.605 17.916C163.097 17.916 163.529 17.814 163.901 17.61C164.285 17.394 164.579 17.1 164.783 16.728C164.999 16.356 165.107 15.948 165.107 15.504V12.984C165.107 12.564 164.939 12.216 164.603 11.94C164.279 11.652 163.847 11.508 163.307 11.508C162.803 11.508 162.353 11.646 161.957 11.922C161.573 12.186 161.291 12.54 161.111 12.984L159.185 12.048C159.377 11.532 159.677 11.088 160.085 10.716C160.505 10.332 160.997 10.032 161.561 9.816C162.125 9.6 162.737 9.492 163.397 9.492C164.201 9.492 164.909 9.642 165.521 9.942C166.133 10.23 166.607 10.638 166.943 11.166C167.291 11.682 167.465 12.288 167.465 12.984V19.5H165.233V17.826L165.737 17.79C165.485 18.21 165.185 18.564 164.837 18.852C164.489 19.128 164.093 19.344 163.649 19.5C163.205 19.644 162.713 19.716 162.173 19.716ZM170.833 23.478C170.569 23.478 170.311 23.454 170.059 23.406C169.807 23.37 169.579 23.304 169.375 23.208V21.228C169.531 21.264 169.717 21.3 169.933 21.336C170.161 21.372 170.371 21.39 170.563 21.39C171.103 21.39 171.493 21.264 171.733 21.012C171.985 20.76 172.207 20.43 172.399 20.022L173.047 18.51L173.011 20.49L168.745 9.708H171.283L174.271 17.664H173.371L176.341 9.708H178.897L174.631 20.49C174.379 21.126 174.073 21.666 173.713 22.11C173.353 22.554 172.933 22.89 172.453 23.118C171.985 23.358 171.445 23.478 170.833 23.478ZM180.192 19.5V9.708H182.406V11.976L182.154 11.598C182.334 10.89 182.694 10.362 183.234 10.014C183.774 9.666 184.41 9.492 185.142 9.492C185.946 9.492 186.654 9.702 187.266 10.122C187.878 10.542 188.274 11.094 188.454 11.778L187.788 11.832C188.088 11.052 188.538 10.47 189.138 10.086C189.738 9.69 190.428 9.492 191.208 9.492C191.904 9.492 192.522 9.648 193.062 9.96C193.614 10.272 194.046 10.71 194.358 11.274C194.67 11.826 194.826 12.468 194.826 13.2V19.5H192.468V13.758C192.468 13.326 192.39 12.954 192.234 12.642C192.078 12.33 191.862 12.09 191.586 11.922C191.31 11.742 190.974 11.652 190.578 11.652C190.206 11.652 189.876 11.742 189.588 11.922C189.3 12.09 189.078 12.33 188.922 12.642C188.766 12.954 188.688 13.326 188.688 13.758V19.5H186.33V13.758C186.33 13.326 186.252 12.954 186.096 12.642C185.94 12.33 185.718 12.09 185.43 11.922C185.154 11.742 184.824 11.652 184.44 11.652C184.068 11.652 183.738 11.742 183.45 11.922C183.162 12.09 182.94 12.33 182.784 12.642C182.628 12.954 182.55 13.326 182.55 13.758V19.5H180.192ZM201.465 19.716C200.457 19.716 199.575 19.488 198.819 19.032C198.063 18.576 197.475 17.958 197.055 17.178C196.635 16.398 196.425 15.534 196.425 14.586C196.425 13.602 196.635 12.732 197.055 11.976C197.487 11.208 198.069 10.602 198.801 10.158C199.545 9.714 200.373 9.492 201.285 9.492C202.053 9.492 202.725 9.618 203.301 9.87C203.889 10.122 204.387 10.47 204.795 10.914C205.203 11.358 205.515 11.868 205.731 12.444C205.947 13.008 206.055 13.62 206.055 14.28C206.055 14.448 206.043 14.622 206.019 14.802C206.007 14.982 205.977 15.138 205.929 15.27H198.369V13.47H204.597L203.481 14.316C203.589 13.764 203.559 13.272 203.391 12.84C203.235 12.408 202.971 12.066 202.599 11.814C202.239 11.562 201.801 11.436 201.285 11.436C200.793 11.436 200.355 11.562 199.971 11.814C199.587 12.054 199.293 12.414 199.089 12.894C198.897 13.362 198.825 13.932 198.873 14.604C198.825 15.204 198.903 15.738 199.107 16.206C199.323 16.662 199.635 17.016 200.043 17.268C200.463 17.52 200.943 17.646 201.483 17.646C202.023 17.646 202.479 17.532 202.851 17.304C203.235 17.076 203.535 16.77 203.751 16.386L205.659 17.322C205.467 17.79 205.167 18.204 204.759 18.564C204.351 18.924 203.865 19.206 203.301 19.41C202.749 19.614 202.137 19.716 201.465 19.716ZM207.842 19.5V9.708H210.056V11.634L209.876 11.292C210.104 10.704 210.476 10.26 210.992 9.96C211.52 9.648 212.132 9.492 212.828 9.492C213.548 9.492 214.184 9.648 214.736 9.96C215.3 10.272 215.738 10.71 216.05 11.274C216.362 11.826 216.518 12.468 216.518 13.2V19.5H214.16V13.758C214.16 13.326 214.076 12.954 213.908 12.642C213.74 12.33 213.506 12.09 213.206 11.922C212.918 11.742 212.576 11.652 212.18 11.652C211.796 11.652 211.454 11.742 211.154 11.922C210.854 12.09 210.62 12.33 210.452 12.642C210.284 12.954 210.2 13.326 210.2 13.758V19.5H207.842ZM222.976 19.608C221.872 19.608 221.014 19.308 220.402 18.708C219.802 18.096 219.502 17.238 219.502 16.134V11.814H217.81V9.708H217.99C218.47 9.708 218.842 9.582 219.106 9.33C219.37 9.078 219.502 8.712 219.502 8.232V7.476H221.86V9.708H224.11V11.814H221.86V16.008C221.86 16.332 221.914 16.608 222.022 16.836C222.142 17.064 222.322 17.238 222.562 17.358C222.814 17.478 223.132 17.538 223.516 17.538C223.6 17.538 223.696 17.532 223.804 17.52C223.924 17.508 224.038 17.496 224.146 17.484V19.5C223.978 19.524 223.786 19.548 223.57 19.572C223.354 19.596 223.156 19.608 222.976 19.608ZM229.674 19.716C228.63 19.716 227.718 19.47 226.938 18.978C226.17 18.474 225.642 17.796 225.354 16.944L227.118 16.098C227.37 16.65 227.718 17.082 228.162 17.394C228.618 17.706 229.122 17.862 229.674 17.862C230.106 17.862 230.448 17.766 230.7 17.574C230.952 17.382 231.078 17.13 231.078 16.818C231.078 16.626 231.024 16.47 230.916 16.35C230.82 16.218 230.682 16.11 230.502 16.026C230.334 15.93 230.148 15.852 229.944 15.792L228.342 15.342C227.514 15.102 226.884 14.736 226.452 14.244C226.032 13.752 225.822 13.17 225.822 12.498C225.822 11.898 225.972 11.376 226.272 10.932C226.584 10.476 227.01 10.122 227.55 9.87C228.102 9.618 228.732 9.492 229.44 9.492C230.364 9.492 231.18 9.714 231.888 10.158C232.596 10.602 233.1 11.226 233.4 12.03L231.6 12.876C231.432 12.432 231.15 12.078 230.754 11.814C230.358 11.55 229.914 11.418 229.422 11.418C229.026 11.418 228.714 11.508 228.486 11.688C228.258 11.868 228.144 12.102 228.144 12.39C228.144 12.57 228.192 12.726 228.288 12.858C228.384 12.99 228.516 13.098 228.684 13.182C228.864 13.266 229.068 13.344 229.296 13.416L230.862 13.884C231.666 14.124 232.284 14.484 232.716 14.964C233.16 15.444 233.382 16.032 233.382 16.728C233.382 17.316 233.226 17.838 232.914 18.294C232.602 18.738 232.17 19.086 231.618 19.338C231.066 19.59 230.418 19.716 229.674 19.716Z" fill="#133041"/>
</svg>
